/* XPM */
static char *_b738f0c88f846d5944f8fd9d2bf8593XlDs8eccreCDvpw7[] = {
/* columns rows colors chars-per-pixel */
"256 24 2 1 ",
"  c None",
". c black",
/* pixels */
"          ...    ... ... .. ..    ..... ...  .. ....       ...      ...  ....                                                 .........  ....   ....    ....    ... ... .......    .... ....    ....    .......                     ...          ...    ....... ",
"          ...   ... ...  .. ..   ...... ... ... .... ..   ...      ....  .....    ...     ...                                ..........  ....   .....   .....   ... ... .......   ..... .....   .....   .......   ...      ...     ...  .......   ...   ....... ",
"          ...   ..  ..  ....... .. ..    . ...  ... ...   ..      ...       ... .......   ...                               ... ... ...   ...      ...      ..  ... ... ...      ..        ...  ... ..  ... ...   ...      ...    ...   .......    ...  ... ... ",
"          ...            .. ..  .......   ...   ......           ...        ...  .....  .......         .......            ...  ... ...   ...   .......  ...... ....... ....... .......     ... ....... .......                  ...                ...    ...  ",
"          ...           .......   .. ..  ... .  ... ...          ...        ... .......   ...           .......           ...   ... ..    ...   ...         ...     ...    ...  ... ...     ...  .. ...     ..                    ...   .......    ...    ...   ",
"                         .. ..  ......  ... ...  ......          ...       ...    ...     ...      ...            ...    ...    .....    .....  ....... .......     ... .....   .......     ...   ..... .....     ...      ...     ...  .......   ...           ",
"          ...            .. ..  .....   ..  ...   .....           .....  ....                     ...             ...   ...     ....     .....  ....... .......     ... ....    .......     ...    .... ....      ...     ...       ...          ...      ...   ",
"                                                                   ....  ...                      ..                    ..                                                                                                ..                                    ",
"....       .... ....       .... ....       ....    ....    .... ... ... .......     ... ... ...    ..   ..   .. ..  ...    .... ....    ....... ....       .... ....... ... ... ... ... ... ... ... ... ... ... ....        ... ..       ......    .            ",
".....     ..... .....     ..... .....     .....   .....   ..... ... ... .......     ... ... ...   ..    ... ... ... ...   ..... .....   ....... .....     ..... ....... ... ... ... ... ... ... ... ... ... ... .....      .... ...      ......   ...           ",
"..  ..   .. ... ... ..   .. ... ... ..   ..      ..      ..     ... ...   ...       ... ......   ..     ....... .......  .. ... ... ..  ... ... ... ..   ...      ...   ... ... ... ... ... ...   ...   ... ...    ...    ..     ...        ...  .....          ",
".. .... ....... ......  ...     ... ... ......  ......  ... ... .......   ...       ... .....   ...     ....... ....... ... ... ....... ... ... ... ... .......   ...   ... ... ... ... .......  .....  ....... .......  ...      ...       ... .......         ",
".. ........ ... ... ... ... ... ... ... ...     ...     ... ... ... ...   ...   ... ..  ......  ...  .. ....... ....... ... ... ....... ... ..  .......     ...   ...    .. ... ... ..  ....... ... ...     ..  ...      ...       ...      ...   ...           ",
".. .. ..... ... ....... ....... ....... ....... ...     ....... ... ... ....... .....   ... ... ....... ... ... ... ... ....... ...     ....... ......  .......   ...     ..... .....   ......  ... ... .....   .......  ...        ...     ..    ...           ",
".. ........ ... ....... ....... ....... ....... ...     ....... ... ... ....... ....    ... ... ....... ... ... ...  .. ....... ...     ... ... ... ... .......   ...      .... ....    .. ..   ... ... ....    .......  ......      ... ....     ...   ........",
"..  ....                                                                                                                                    ...                                                                          ......       .. ...            ........",
"   ....         ...                 ...             ...         ...       ...       ... ...       ...                                                           ...                                                         ...   ...    .....   ..  ..    .....",
"  .....         ...                 ...            ..           ...                     ...       ...                                                           ...                                                        ...    ...    .....  .......   .    .",
" ..     ....... ...  ..   ..... ....... .......   ...   ....... ...  ..   ...       ... ... ...   ...   ...  .. .....   ....    .....     .....   .....   ..... ......  ... ... ... ... .. .. ..... ... ... ... .......   ...     ...       ..  ..  ..   .  .. .",
"......  ... ... ... ...  .. ... ... ... ... ...  .....  .. .... ... ...   ...       ... ......    ...   ..............  .....   ......   ......  .. ...  ...    ...     ... ... ... ... ............... ....... ......  ...       ...       ....        .  ..  .",
"...     ... ... ....... ...     ....... ......    ...   ... ... .......   ...       ... .....     ...   ........... ... ... ..  ... ... ... ... ...     ....... ...     ... ... ... ... ........ .....  ... ...   ...   ....      ...        ...        . ...  .",
"....... .... .. ... ... ... ... ... ... .....     ...   ..  ... ... ...   ...       ... ......    ...   ........... ... ....... ....... ....... ...         ...  .. ...  .. ... ... ..  .... .......... ..  ...  ......   ..      ...      ...          . .... .",
"....... ...  .. ....... ....... ..  ... .......   ...       ... ... ...   ...   ... ..  ... ...   ...   .. .. ..... ... ....... ...         ... ...     .......   .....   ..... .....   ...  .. ... ...     ... .......   .....   ...     ...           .      .",
"                                                         ......                 .....                                           ...         ...                                                          ......           .....   ...    ...            ........"
};
