/* XPM */
static char *_f667e06ffc147c2a03df971d2d53c80rZs9GTXj7Gtk4uiU[] = {
/* columns rows colors chars-per-pixel */
"256 24 2 1 ",
"  c None",
". c black",
/* pixels */
"           .     ..  ..              .             ..      ..       ...   ...                                                .     ...      .     ....   ......    .      .....    ...   ......   ....    ....                                            ....  ",
"          ..     .   .     . .     ...   ..   .   .  .     .       ..       ..      .       .                               .     .  ..    ..    .   ..      .    .  .    .       .   .  .   .   ..   .  ..  ..                                           .  .. ",
"           .    .   .    ......   .   . . . ..    .       .        .         .    ....      .                               .    .    .     .         .    ..     .  .   . ...   .          .    .   .   .  ...    ..      ..       .    ......   .      .    . ",
"           .              . .      ..   .. ..    ... ..           ..         ..   ...    ......          ......            .     .    .     .        .       .   .   .   ..  ..  . ...     ..     ....    ..  .                    .               .         .  ",
"                        ......       ..   .. .. .    .             .         .   ....      .                               .     .    .     .      ..         .  ......       .  ..   .    .      .   .       .                  ..      ......     ..     ..   ",
"          ..             . .     ..   .  .. . . ..  ..             ..       ..    .        .       ..                     .      ..  .      .     .      .   ..      .   .   ..  ..  ..   ..     .   ..  .   .     ..      ..      .               .            ",
"          .                       ....  .   ..   ... ..             ...   ...                      .               ..     .       ...       .    ......   ....       .    ....    ....    ..      ....    ...              .        .             .        .    ",
"                                  .                                                               .                      .                                                                                                .                                     ",
"   ...     ..    .....     ...   ....    ......  ......    ...   ... ...  .....     ...  ..   .  ...     ..   .. ..  ...   ...   .....     ...   .....    ... .  ....... ... ... ..   .. ... ... ..   .. ..   ..  .....   ....   .        ....      .           ",
"  .  ..     .     .   .   .   .   .  .    .   .   .   .   .   .   .   .     .        .    .  .    .       .. ..   ..  .   .  ..   .   .   .  ..   .   .  .   ..  .  .  .  .   .   .   .   .   .   .   .   .   .   .   .   .       .          .     ...          ",
" .  . .    . .    .  .   .        .   .   .       .      .        .   .     .        .    . .     .       .. ..   ..  .  .    .   .  .   .    .   .  .   .          .     .   .   .   .   . . .    . .     . .       .    .       .          .    .....         ",
" . .  .    . .    ....   .        .   .   ....    ....   .  ...   .....     .        .    ..      .       . . .   . . .  .    .   ...    .    .   ...     ....      .     .   .    . .    . . .     .       .       .     .        .         .    . . .         ",
" .  ..    .....   .   .  .        .   .   .       .      .    .   .   .     .        .    . .     .       . . .   .  ..  .    .   .      .    .   .  .        .     .     .   .    . .    . . .    . .      .      .      .        .         .      .           ",
" ..   .   .   .   .   .  ..   .   .  .    .   .   .      ..  ..   .   .     .        .    .  .    .   .   .   .   .  ..  ..  .    .      ..  .    .   .  ..   .     .     ..  .     .     .. ..   .   .     .     .   .   .         .        .      .           ",
"  ....   ..   .. .....    ....   ....    ......  ...      ... .  ... ...  .....  .  ..   ..  ..  .....   ... ... ...  .   ...    ...      ...  . ...  .. . ...     ...     ...      .     .   .  ..   ..   ...    .....   ....      .     ....      .           ",
"                                                                                  ...                                                       ...                                                                                      .                  ........",
"    ..           .                    .             ...          .         .        .    .         .                                                               .                                                        ...    .     ...     ...  .   ....  ",
"   .  .   .. .   . ..      ...     .. .    ...     ..      ... ...   ..                 ..  ..    ..    . .. ..  .   ..    ...   . ...    ... .  .   ..   .....  ......  .    .   .   . .     .  ..   .   .    .  .....     .      .       .    .  ...   .   .. ",
"   .     .  ..   ..  .    .       .  ..   .  .     .      .  ..  .  ...    .        .    . ...     .    ....... ..  ...   .  ..  ..  ..  ..  .. ..  ...  ..  .     .    ..   ..  ..  .. .  .  . . .. .   ..   .. .   .     ..      .       ..           .  .. ..",
" .....  .    .   .    .  .       .    .  .  .    ......  .    .  . .  .   ..       ..    ..  .     .    .  .  .  . .  .  .    .  .    .  .    .  . .  .   .        .     .   ..   .  .  .  .  .    ..      .  .     .    ...       .        ...         . .    .",
"  .     .    .   .    .  .       .    .  . .       .     ..  ..  ..   .    .        .    .  .      .    .  .  .  ..   .  .    .  .    .  .    .  ..        ..      .  .  .  . .   . .   .  .  .   ...      ...     .       ..      .       ..           . .. . .",
"  .     ..  ..   ..  ..  ..   .  ..  ..  ..   .    .      ... .  .    ..   . .      .    . ...     . .  .  .  .. .    .. ..  .   ..  .    .  ..  .      .   ..     ...   ...  ..  ..    . .. ..  .  .. .    .     .   .     .      .       .            .. ..  .",
" ...  .  ... ..  . ...    ....    ... .   ....     ..   .    .   .    .    ..       .   ..    .    ..   .  .  .  .    .   ...    . ..      .. .  .       ....      ..    ..   .   .     .. .. . .    ..  . .     ......     ...    .     ...             ..   . ",
".  ...                                             .     ....                      .                                             .            ..                                                         ..                                               ....  "
};
